# xmcd
#
# Track frame offsets:
# 150
# 6225
# 13800
# 34425
# 52537
# 81937
#
# Disc length: 1193 seconds
#
# Revision: 1
# Processed by: cddbd v1.5.2PL0 Copyright (c) Steve Scherf et al.
# Submitted via: CedeCatalogueitor 2.6.0.6 http://personales.ya.com/cdcatalogueitor
#
DISCID=3f04a706
DTITLE=Varios Artistas - Cronolanea: Cacolalia
DYEAR=1900
DGENRE=
TTITLE0=Za: Puta, Puta
TTITLE1=La Estrella De David: Te Quiero
TTITLE2=Joe Crepúsculo: Cerebralia
TTITLE3=Thelemáticos: Cacolalia
TTITLE4=Alarido: La Tourettesa
TTITLE5=YP (video)
EXTD=
EXTT0=
EXTT1=
EXTT2=
EXTT3=
EXTT4=
EXTT5=
PLAYORDER=
